Coordinates
version=1
nRows=15
nColumns=34
inDegrees=yes

Units are S.I. units (second, meters, Newtons, ...)
If the header above contains a line with 'inDegrees', this indicates whether rotational values are in degrees (yes) or radians (no).

endheader
time	pelvis_tilt	pelvis_list	pelvis_rotation	pelvis_tx	pelvis_ty	pelvis_tz	hip_flexion_r	hip_adduction_r	hip_rotation_r	knee_angle_r	ankle_angle_r	subtalar_angle_r	mtp_angle_r	hip_flexion_l	hip_adduction_l	hip_rotation_l	knee_angle_l	ankle_angle_l	subtalar_angle_l	mtp_angle_l	lumbar_extension	lumbar_bending	lumbar_rotation	arm_flex_r	arm_add_r	arm_rot_r	elbow_flex_r	pro_sup_r	arm_flex_l	arm_add_l	arm_rot_l	elbow_flex_l	pro_sup_l
      4.45000000	     -2.70047629	     -0.71952998	      2.42713980	      1.81838396	      0.81079612	     -0.01885804	     13.32547617	     -9.75507589	    -14.65374184	     47.49659969	     32.73230063	     -1.36925740	      0.00000000	     19.01917246	    -10.59509912	     -1.13787336	     48.08394822	     29.59955355	      7.28319944	      0.00000000	     -2.90806828	     -0.81439662	      2.35674902	     90.14816093	      5.39389148	      9.07468133	    104.58772854	     93.23327187	    104.80228441	      7.67010563	     22.05928664	     82.82173814	     87.15142858
      4.46666670	     -2.89629928	     -0.65488170	      2.66553681	      1.82125463	      0.81973653	     -0.01910622	     12.48876398	     -9.67362056	    -15.16024090	     45.68881180	     31.36478917	     -0.96367953	      0.00000000	     17.89381883	    -10.61773156	     -1.80244544	     45.70293503	     28.53953610	      8.51719152	      0.00000000	     -2.41020279	     -0.99717132	      2.41514948	     89.17234091	      4.54397332	      9.08587944	    105.67944815	     93.27879575	    104.58913097	      7.14363127	     22.82858199	     83.97558255	     87.39232553
      4.48333330	     -3.02849025	     -0.64158834	      2.90369222	      1.82393771	      0.83067341	     -0.01869042	     11.34353585	     -9.28346082	    -15.47625165	     43.10422201	     29.17704723	     -0.88409306	      0.00000000	     16.31771220	    -10.61086869	     -2.55446419	     42.43666186	     26.93330853	      9.63031339	      0.00000000	     -2.21694071	     -1.28029733	      2.55834687	     88.72680843	      3.28160734	      9.04203504	    106.86823505	     93.37164443	    105.02537329	      6.52745965	     23.91586147	     85.34549250	     87.80117705
      4.50000000	     -3.16950726	     -0.62670138	      3.23030267	      1.82675063	      0.84321984	     -0.01800816	      9.93637381	     -8.68245782	    -15.72399262	     39.82406588	     26.44738457	     -1.04155159	      0.00000000	     14.48667641	    -10.46265679	     -3.13486361	     38.45950544	     24.59559403	     10.31837337	      0.00000000	     -1.94016469	     -1.64184098	      2.81444859	     88.79472458	      1.75181635	      9.00995314	    106.91401975	     93.50574916	    105.61913147	      6.11179986	     24.79950028	     86.15293596	     88.19015219
      4.51666670	     -3.32876224	     -0.60739098	      3.56116723	      1.82938042	      0.85656833	     -0.01725596	      8.46081746	     -7.91073199	    -15.81999587	     36.16788990	     23.29641801	     -1.49570652	      0.00000000	     12.63589668	    -10.26637837	     -3.60978552	     34.21897430	     21.57903923	     10.63827960	      0.00000000	     -1.67533198	     -2.11087468	      3.18570450	     89.92467486	     -0.02731700	      8.96317098	    105.20132883	     93.70409856	    106.77185891	      5.86369284	     25.25747684	     86.21621120	     88.50964818
      4.53333330	     -3.52304873	     -0.53134601	      3.86932459	      1.83129707	      0.86924108	     -0.01649429	      7.11558437	     -7.17420425	    -15.89526548	     32.55749691	     19.91300195	     -2.27938415	      0.00000000	     11.03041964	    -10.02792917	     -4.06267820	     30.21690498	     18.00556967	     10.65184937	      0.00000000	     -1.48748168	     -2.72863625	      3.68266353	     92.67007693	     -1.74799123	      8.80862523	    100.76937495	     93.98952882	    108.82094911	      5.90270092	     25.06580777	     85.02847770	     88.72770916
      4.55000000	     -3.81772962	     -0.42340284	      4.14205176	      1.83261944	      0.87807391	     -0.01595159	      6.16490057	     -6.62232551	    -16.09536045	     29.50091460	     16.56596774	     -3.26963299	      0.00000000	      9.93193622	     -9.76934483	     -4.45667736	     26.84567457	     14.20392757	     10.51937955	      0.00000000	     -1.39262144	     -3.43687290	      4.29790405	     97.50183535	     -3.02801318	      8.51788874	     92.78742160	     94.42472422	    112.11042125	      6.38870057	     24.41710487	     82.18326344	     88.86062799
      4.56666670	     -4.29748149	     -0.29605077	      4.38756590	      1.83385449	      0.88464459	     -0.01581310	      5.74954226	     -6.30528981	    -16.34768201	     27.16677543	     13.39104604	     -4.23766880	      0.00000000	      9.37364032	     -9.43357508	     -4.72100914	     24.08711539	     10.57163537	     10.30723827	      0.00000000	     -1.27076809	     -4.20861611	      5.11450237	    104.28677245	     -3.88507574	      8.20887613	     81.15215523	     94.95348499	    116.48776468	      7.33737854	     23.80164939	     77.89760917	     88.89984890
      4.58333330	     -4.82671854	     -0.17599020	      4.70198041	      1.83558334	      0.89208742	     -0.01615040	      5.47467512	     -6.10162727	    -16.52280241	     25.08751796	     10.28182137	     -4.95810822	      0.00000000	      9.07464461	     -8.98927279	     -4.69861915	     21.70935359	      7.27235650	     10.21416037	      0.00000000	     -1.34242361	     -4.93580714	      5.97475104	    112.99176745	     -4.39061459	      8.75788142	     66.40822006	     95.81563801	    121.51955528	      8.35646424	     23.72807861	     73.81068536	     88.88618653
      4.60000000	     -5.57795597	     -0.05594746	      4.98620511	      1.83831453	      0.90184523	     -0.01713974	      5.38242704	     -6.00909700	    -16.51974194	     22.94746355	      6.99455431	     -5.36741396	      0.00000000	      8.94789224	     -8.39057871	     -4.41248784	     19.31562725	      3.99475750	     10.00266427	      0.00000000	     -1.20357411	     -5.65458325	      7.27959208	    122.55083470	     -4.82541254	     10.43236999	     50.55887695	     96.51277421	    126.31357662	      9.71498084	     23.71661287	     70.19455510	     88.70160845
      4.61666670	     -6.32177170	      0.03990505	      5.29040928	      1.84196117	      0.91225348	     -0.01847861	      5.07102806	     -5.93921156	    -16.48311954	     20.48316303	      3.50293508	     -5.40830307	      0.00000000	      8.72155268	     -7.72375443	     -3.80701680	     16.86825904	      0.62719392	      9.65372695	      0.00000000	     -1.07601948	     -6.37707016	      8.70552677	    132.11875846	     -5.23250061	     13.93734684	     35.46893959	     96.70376837	    130.42515367	     11.18060138	     23.58976622	     68.06909769	     88.35872787
      4.63333330	     -7.17438733	      0.10166933	      5.35371431	      1.84633353	      0.91869940	     -0.01848116	      4.91808283	     -5.88373197	    -16.20868904	     18.12294365	      0.22995845	     -5.07773993	      0.00000000	      8.50788773	     -7.12887259	     -3.35151178	     14.45512801	     -2.89686012	      8.83402014	      0.00000000	     -0.64446213	     -6.89199429	     10.94840235	    141.30019179	     -5.90140619	     22.51451951	     22.70663183	     94.99795523	    133.57216474	     12.52585520	     23.08620459	     67.06420143	     87.71614615
      4.65000000	     -7.86651378	      0.15589119	      5.68936665	      1.85105678	      0.92081867	     -0.01614895	      4.50558224	     -5.70987928	    -16.19028414	     15.82191256	     -3.08653721	     -4.71773802	      0.00000000	      8.41116027	     -6.72100294	     -2.82813143	     12.60543504	     -5.72329240	      8.32246689	      0.00000000	     -0.29357089	     -7.90736095	     11.74464527	    148.37121120	     -5.96382438	     29.47211691	     13.79406123	     91.08674680	    136.98803417	     14.09742021	     22.66922371	     65.40782211	     87.43049120
      4.66666670	     -8.79321209	      0.02618863	      5.72625310	      1.85609079	      0.92262906	     -0.01255153	      4.67285313	     -5.24331112	    -15.58045517	     14.05934708	     -6.22813790	     -5.46252523	      0.00000000	      8.46926404	     -6.58518100	     -1.98641536	     10.67078218	     -9.14663910	      6.01976895	      0.00000000	      0.60729296	     -8.55728870	     12.52871113	    152.70841255	     -6.08270196	     30.28924747	     11.75335732	     90.00486926	    140.16774310	     14.96567727	     22.74882182	     63.93121102	     87.48537036
      4.68333330	     -9.34883799	     -0.15248396	      5.81253986	      1.86140418	      0.92568837	     -0.01009571	      4.37637644	     -4.65677414	    -15.33728378	     12.25708576	     -9.46664515	     -5.44630529	      0.00000000	      8.37122773	     -6.69879649	     -1.73251640	      9.25380061	    -11.64097532	      5.08540513	      0.00000000	      1.07324918	     -8.84097024	     12.80746230	    157.70002278	     -5.52738168	     52.23310550	      7.43977040	     72.29285902	    142.98571484	     15.46404219	     22.51616327	     63.19202012	     88.87555510
